<svg id="a139742c-031f-4297-9910-0b661ecf4262" xmlns="http://www.w3.org/2000/svg" viewBox="0 0 888.08 534.97"><defs><style>.cls-1{fill:#e6e6e6;}.cls-2{fill:#3f3d56;}.cls-3{fill:#2f2e41;}.cls-4{fill:#a0616a;}.cls-5{fill:#cfcce0;}.cls-6{fill:#fff;}.cls-7{fill:#89cdf5;}.cls-8{fill:#ccc;}</style></defs><path class="cls-1" d="M58.23,391.7l-5.33-21a272.39,272.39,0,0,0-29-10.4l-.67,9.78-2.73-10.77c-12.21-3.49-20.52-5-20.52-5s11.22,42.68,34.76,75.3l27.43,4.82-21.31,3.07a109.56,109.56,0,0,0,9.53,10.1c34.24,31.78,72.38,46.36,85.18,32.57S131,429.37,96.78,397.59c-10.62-9.86-24-17.76-37.3-24Z" transform="translate(0 0)"/><path class="cls-1" d="M109,368.86l6.3-20.77a272.7,272.7,0,0,0-19.43-23.87l-5.63,8,3.23-10.63c-8.65-9.3-15-14.91-15-14.91S66,349,69.29,389.12l21,18.31L70.46,399a110,110,0,0,0,2.93,13.57c12.89,44.91,38,77.11,56.09,71.92s22.31-45.81,9.43-90.71c-4-13.92-11.32-27.58-19.53-39.81Z" transform="translate(0 0)"/><rect class="cls-2" x="0.08" y="487.65" width="888" height="2.24"/><path class="cls-3" d="M140.38,255.61s-6.92,83.15-8.4,101a126.71,126.71,0,0,1-7.43,32.66s-3,5.94-3,11.88v75.72s-5.93,0-4.45,5.94,3,16.34,3,16.34h22.27s-1.48-4.46,3-5.94,0-13.37,0-13.37l23.76-89.08,35.63-74.24S225.52,383.3,230,390.73c0,0,16.34,83.15,19.3,90.57s4.46,7.42,3,10.39-1.48,5.94,0,7.43,29.7,0,29.7,0L274.52,393.7,261.15,267.49l-68.3-20.78Z" transform="translate(0 0)"/><path class="cls-3" d="M136.43,487.24s-7.42-26.73-19.3-5.94-11.88,28.21-11.88,28.21-19.3,28.21,7.43,25.24,20.78-16.33,20.78-16.33,10.4-5.94,10.4-10.4S136.43,487.24,136.43,487.24Z" transform="translate(0 0)"/><path class="cls-3" d="M256.7,484.27s7.42-26.73,19.3-5.94,11.88,28.21,11.88,28.21,19.3,28.21-7.43,25.24-20.78-16.33-20.78-16.33-10.4-5.94-10.4-10.39S256.7,484.27,256.7,484.27Z" transform="translate(0 0)"/><path class="cls-4" d="M186.91,55.17s3,19.3-5.93,23.76,19.3,20.78,26.72,20.78,20.79-14.84,20.79-14.84-7.43-22.28-5.94-26.73Z" transform="translate(0 0)"/><circle class="cls-4" cx="203.25" cy="38.84" r="31.18"/><path class="cls-5" d="M264.12,102.68,227,80.19s-21.11,24-44-2.75l-39.18,10.4,5.94,101s-8.91,40.09-5.94,47.51-7.43,10.4-4.46,11.88,0,11.88,0,11.88,57.91,29.69,121.75,7.42l-5.94-19.3a15.57,15.57,0,0,0-3-14.85s5.94-8.91-1.48-16.33c0,0,3-13.36-4.46-19.3l-1.48-20.79,4.45-10.39Z" transform="translate(0 0)"/><path class="cls-3" d="M187.29,24.36s-3.72,8,11.15,4.83c0,0,5.58,3.21,5.58-1.61,0,0,7.43,8,9.29,3.22s5.58,1.6,5.58,1.6l3.71-8,3.72,4.83h13S243.05-3,198.44.23s-22.66,54.2-22.66,54.2.36-9.15,4.08-4.33S187.29,24.36,187.29,24.36Z" transform="translate(0 0)"/><path class="cls-4" d="M277.49,162.07,279,193.25s5.94,57.91-5.94,83.15v13.36s-3,34.15-17.82,32.67,4.46-49,4.46-49l-3-65.33-3-37.12Z" transform="translate(0 0)"/><path class="cls-5" d="M247.79,104.17l14.81-2.41a72.26,72.26,0,0,1,20.82,38c4.46,23.76,5.94,28.21,5.94,28.21l-35.63,8.91-19.3-37.12Z" transform="translate(0 0)"/><rect class="cls-6" x="184.02" y="87.22" width="234.31" height="116.39"/><path class="cls-7" d="M209.6,94.22c-6-3.62-13.28-3.34-16-3.06,1.06,2.56,4.21,9.1,10.23,12.73s13.28,3.34,16,3.07C218.78,104.39,215.62,97.85,209.6,94.22Z" transform="translate(0 0)"/><path class="cls-7" d="M237.89,166.06H200.27a8.47,8.47,0,1,0,0,16.93h37.62a8.47,8.47,0,0,0,0-16.93Z" transform="translate(0 0)"/><path class="cls-7" d="M408.26,76.7H197.32a18.69,18.69,0,0,0-18.69,18.69h0V198.16a18.69,18.69,0,0,0,18.69,18.69H408.26A18.69,18.69,0,0,0,427,198.16V95.39A18.69,18.69,0,0,0,408.26,76.7ZM192.1,89.45c.42-.08,10.29-1.76,18.47,3.16s11.32,14.44,11.45,14.84l.33,1-1.06.18a28,28,0,0,1-4.58.34,27.31,27.31,0,0,1-13.89-3.5c-8.18-4.92-11.32-14.44-11.45-14.84l-.33-1Zm45.79,95.42H200.27a10.35,10.35,0,0,1,0-20.7h37.62a10.35,10.35,0,0,1,0,20.7ZM409.08,183a11.32,11.32,0,0,1-11.29,11.28H369.57A11.33,11.33,0,0,1,358.28,183V166.06a11.33,11.33,0,0,1,11.29-11.29h28.22a11.32,11.32,0,0,1,11.29,11.29Z" transform="translate(0 0)"/><path class="cls-7" d="M378.51,179.69H366.28a3.3,3.3,0,0,0,0,6.59h12.23a3.3,3.3,0,0,0,0-6.59Zm0,4.71H366.28a1.41,1.41,0,1,1,0-2.82h12.23a1.41,1.41,0,1,1,0,2.82Z" transform="translate(0 0)"/><path class="cls-7" d="M401.08,179.69H388.85a3.3,3.3,0,0,0,0,6.59h12.23a3.3,3.3,0,0,0,0-6.59Zm0,4.71H388.85a1.41,1.41,0,0,1,0-2.82h12.23a1.41,1.41,0,1,1,0,2.82Z" transform="translate(0 0)"/><path class="cls-7" d="M378.51,171.23H366.28a3.29,3.29,0,1,0,0,6.58h12.23a3.29,3.29,0,0,0,0-6.58Zm0,4.7H366.28a1.41,1.41,0,1,1,0-2.82h12.24a1.41,1.41,0,0,1,0,2.82Z" transform="translate(0 0)"/><path class="cls-7" d="M401.08,171.23H388.85a3.29,3.29,0,0,0,0,6.58h12.23a3.29,3.29,0,1,0,0-6.58Zm0,4.7H388.85a1.41,1.41,0,0,1,0-2.82h12.24a1.42,1.42,0,0,1,1.42,1.41,1.41,1.41,0,0,1-1.41,1.41Z" transform="translate(0 0)"/><path class="cls-7" d="M378.51,162.76H366.28a3.3,3.3,0,0,0,0,6.59h12.23a3.3,3.3,0,0,0,0-6.59Zm0,4.71H366.28a1.41,1.41,0,0,1-1.41-1.41,1.42,1.42,0,0,1,1.41-1.42h12.23a1.42,1.42,0,0,1,0,2.83Z" transform="translate(0 0)"/><path class="cls-7" d="M401.08,162.76H388.85a3.3,3.3,0,0,0,0,6.59h12.23a3.3,3.3,0,0,0,0-6.59Zm0,4.71H388.85a1.41,1.41,0,0,1-1.41-1.41,1.42,1.42,0,0,1,1.41-1.42h12.23a1.42,1.42,0,0,1,1.41,1.42A1.41,1.41,0,0,1,401.08,167.47Z" transform="translate(0 0)"/><path class="cls-4" d="M121.58,144.26s-13.36,56.42,3,56.42,54.94-63.85,54.94-63.85,40.09-20.78,23.76-28.21-37.12,11.88-37.12,11.88l-24,33.3-1.25-17Z" transform="translate(0 0)"/><path class="cls-5" d="M152.76,96.74l-8.9-8.9S126,98.23,124.55,108.62s-8.9,43.06-8.9,43.06l27.46,2.23L152,140.54Z" transform="translate(0 0)"/><path id="f152a38b-6c6f-456c-96ce-4c801960ccf2" class="cls-2" d="M768.4,188.67a9.79,9.79,0,0,0-8.94-5.82H580.89a9.55,9.55,0,0,0-9.68,9.41V411.85a9.55,9.55,0,0,0,9.68,9.41H759.46a9.54,9.54,0,0,0,9.68-9.41V192.26a8.9,8.9,0,0,0-.73-3.59ZM767,411.85a7.44,7.44,0,0,1-7.53,7.32H580.89a7.42,7.42,0,0,1-7.53-7.32V192.26a7.45,7.45,0,0,1,7.53-7.32H759.46a7.56,7.56,0,0,1,7,4.61,8,8,0,0,1,.29.82,7.11,7.11,0,0,1,.25,1.89Z" transform="translate(0 0)"/><path id="fabca9b7-6499-499c-b0ba-e512eedfa0e6" class="cls-2" d="M731.14,234.7H677.35a4.19,4.19,0,1,1,0-8.37h53.79a4.19,4.19,0,1,1,0,8.37Z" transform="translate(0 0)"/><path id="b1b2178d-f6c7-4a19-857a-cc93cc70df69" class="cls-2" d="M731.14,256.66H677.35a4.19,4.19,0,1,1,0-8.37h53.79a4.19,4.19,0,1,1,0,8.37Z" transform="translate(0 0)"/><path id="bd84b5e9-e9c5-4886-bcfd-3c769a5bd20c" class="cls-7" d="M649.75,269.16h-39.3a4.78,4.78,0,0,1-4.84-4.71V219.36a4.78,4.78,0,0,1,4.84-4.7h39.3a4.79,4.79,0,0,1,4.85,4.7v45.09A4.79,4.79,0,0,1,649.75,269.16Z" transform="translate(0 0)"/><path id="ad20b6ae-6256-4ad3-9ba5-bff6ef303c78" class="cls-8" d="M730.76,301.62H609.21a4.19,4.19,0,1,1,0-8.37H730.76a4.19,4.19,0,1,1,0,8.37Z" transform="translate(0 0)"/><path id="f5b31b5a-d389-4394-a0c3-430493f21651" class="cls-8" d="M730.76,323.58H609.21a4.19,4.19,0,1,1,0-8.37H730.76a4.19,4.19,0,1,1,0,8.37Z" transform="translate(0 0)"/><path id="e6b00d4f-f233-434b-82e7-f520ed55a592" class="cls-8" d="M730.76,345.54H609.21a4.19,4.19,0,1,1,0-8.37H730.76a4.19,4.19,0,1,1,0,8.37Z" transform="translate(0 0)"/><path id="f83e6214-6629-4e95-ad35-3c9b0c78a3d6" class="cls-8" d="M730.76,367.5H609.21a4.19,4.19,0,1,1,0-8.37H730.76a4.19,4.19,0,1,1,0,8.37Z" transform="translate(0 0)"/><path id="b83f14e7-a754-4235-a578-aebf681d4a1c" class="cls-8" d="M730.76,389.46H609.21a4.19,4.19,0,1,1,0-8.37H730.76a4.19,4.19,0,1,1,0,8.37Z" transform="translate(0 0)"/><ellipse id="af1d3ae0-b86a-44f8-8168-f2f371efc620" class="cls-7" cx="673.2" cy="89.57" rx="41.53" ry="40.37"/><path id="b4906b3b-71df-4c7e-84d8-52e6769e6d26" class="cls-6" d="M669.08,105a4.44,4.44,0,0,1-2.59-.83l0,0-9.76-7.26a4.13,4.13,0,0,1-.82-5.9,4.42,4.42,0,0,1,6.08-.79h0l6.32,4.72,14.94-19a4.42,4.42,0,0,1,6.08-.78h0l-.09.13.09-.13a4.15,4.15,0,0,1,.81,5.91l-17.57,22.27a4.41,4.41,0,0,1-3.45,1.65Z" transform="translate(0 0)"/><path id="b01c4841-6b77-41d3-9bc6-bba4643c130f" class="cls-2" d="M543.59,422h251a1.25,1.25,0,1,0,0-2.5h-251a1.25,1.25,0,1,0,0,2.5Z" transform="translate(0 0)"/></svg>