<svg id="a103f326-996f-4fea-8e69-572a052820ff" xmlns="http://www.w3.org/2000/svg" viewBox="0 0 769.84 636.94"><defs><style>.cls-1{fill:#e6e6e6;}.cls-2{fill:#3f3d56;}.cls-3{fill:#fff;}.cls-4{fill:#e5e5e5;}.cls-5{fill:#89cdf5;}.cls-6{fill:#3acc6c;}.cls-7{fill:#ffb7b7;}.cls-8{fill:#2f2e41;}.cls-9{fill:#cbcbcb;}</style></defs><polygon class="cls-1" points="479.74 627.22 288.49 627.22 294.97 542.94 473.25 542.94 479.74 627.22"/><rect class="cls-1" x="278.76" y="617.5" width="213.94" height="19.45"/><path class="cls-2" d="M750.4,0H19.45A19.45,19.45,0,0,0,0,19.45H0v445.7H769.84V19.45A19.44,19.44,0,0,0,750.4,0Z"/><path class="cls-1" d="M0,465.15v72.93a19.45,19.45,0,0,0,19.45,19.45H750.4a19.44,19.44,0,0,0,19.44-19.45h0V465.15Z"/><rect class="cls-1" x="38.9" y="40.52" width="693.67" height="388.97"/><circle class="cls-2" cx="385.73" cy="510.53" r="19.45"/><circle class="cls-3" cx="60.53" cy="53.26" r="3.69"/><circle class="cls-3" cx="74.54" cy="53.26" r="3.69"/><circle class="cls-3" cx="88.55" cy="53.26" r="3.69"/><rect class="cls-3" x="56.84" y="65.8" width="655.74" height="326.67"/><rect class="cls-4" x="97.34" y="105.22" width="96" height="78" rx="9.29"/><rect class="cls-4" x="434.6" y="105.05" width="96" height="78" rx="9.29"/><rect class="cls-4" x="546.09" y="236.52" width="96" height="78" rx="9.29"/><rect class="cls-5" x="324.22" y="105.05" width="96" height="78" rx="9.29"/><path class="cls-6" d="M446.44,90.69l-5.06-5.09a2.68,2.68,0,0,0-3.79,0l0,0-31.76,31.49-13.43-13.54a2.66,2.66,0,0,0-3.76,0l0,0-5.11,5a2.73,2.73,0,0,0,0,3.82L403.88,133a2.73,2.73,0,0,0,3.82,0l38.74-38.46a2.67,2.67,0,0,0,0-3.79Z"/><rect class="cls-5" x="434.6" y="236.52" width="96" height="78" rx="9.29"/><path class="cls-6" d="M556.82,222.16l-5.06-5.09a2.68,2.68,0,0,0-3.79,0l0,0-31.76,31.49L502.76,235a2.66,2.66,0,0,0-3.76,0l0,0-5.11,5a2.73,2.73,0,0,0,0,3.82l20.39,20.55a2.71,2.71,0,0,0,3.82,0L556.82,226a2.67,2.67,0,0,0,0-3.79Z"/><rect class="cls-4" x="212.36" y="236.52" width="96" height="78" rx="9.29"/><rect class="cls-4" x="324.22" y="235.18" width="96" height="78" rx="9.29"/><rect class="cls-4" x="97.34" y="226.23" width="96" height="78" rx="9.29"/><rect class="cls-4" x="210.6" y="105.4" width="96" height="78" rx="9.29"/><path class="cls-7" d="M201.08,385.91a13,13,0,0,0,0-18.45,13.88,13.88,0,0,0-1.77-1.48l12.6-44.63-23,7.31-8.44,41.26a13.12,13.12,0,0,0,20.57,16Z"/><path class="cls-2" d="M207.61,358.56a5.77,5.77,0,0,1-1.24.1l-22-.44a5.83,5.83,0,0,1-5.72-6,4.52,4.52,0,0,1,.06-.74l22.34-151a18.51,18.51,0,0,1,18.26-15.72h0a18.4,18.4,0,0,1,17.83,22.83L221.27,271.8l-9,81.66A5.81,5.81,0,0,1,207.61,358.56Z"/><polygon class="cls-7" points="216.82 596.92 229.08 596.92 234.92 549.63 216.82 549.63 216.82 596.92"/><path class="cls-8" d="M213.7,592.91h24.14a15.39,15.39,0,0,1,15.39,15.39v.5H213.7Z"/><polygon class="cls-7" points="269.1 592.93 281.28 594.3 292.35 547.96 274.37 545.94 269.1 592.93"/><path class="cls-8" d="M266.44,588.61l24,2.69h0a15.39,15.39,0,0,1,13.58,17l-.06.5-39.28-4.4Z"/><path class="cls-8" d="M205.32,333.77s-16.81,37.21-2,61.37l8.84,188.17H232.5l19.69-152,35,45-21.32,105,24.83,1.39,34.49-106.42S298.7,359,290,356.14l-5.76-26.83Z"/><path class="cls-9" d="M197.84,366.43s-15.15,17.38,24.85,23.38,82-3,83-15S197.84,366.43,197.84,366.43Z"/><path class="cls-7" d="M398.35,150.86a11.64,11.64,0,0,1-14.06,10.93l-15.12,21.8-15.49-6,21.79-30.49a11.67,11.67,0,0,1,22.88,3.71Z"/><path class="cls-2" d="M270.48,178.92l-21.38-9.67-27.39,2s-33,38.6-20,75.6l-8,129c51,14,74.19-12.26,111-1L293.32,231.44Z"/><path class="cls-2" d="M256.19,188.31l14.29-9.39s19.85-3,27.78,4.69c0,0,26.93,2.26,33.43,9l7.16,1.61,23.79-30.8,14.55,7.91-21,57-62.87,3.13Z"/><circle class="cls-7" cx="244.94" cy="128.79" r="33.74" transform="translate(-31.76 133.27) rotate(-28.66)"/><path class="cls-8" d="M215.75,102.41c6-10.84,13.55-17.85,25.94-17.6s23.12-.24,28.69,10.84a18.27,18.27,0,0,0,2.15-9A10.29,10.29,0,0,1,277.07,97a7.49,7.49,0,0,0,3.7-6.16c4.14,1.37,5.21,7.2,3.12,11s-6.2,6-10.13,7.91-2.12,11.75-4.7,15.27c-1.79,2.46-2.61,5.47-3.82,8.26a.6.6,0,0,1-.24.26,7.26,7.26,0,0,0-4,7.44,1.15,1.15,0,0,1,0,.71c-3.51,6.62-7.3,13.53-13.66,17.48a22.65,22.65,0,0,1-17,2.63c-6.5-1.55-12.12-5.87-16.18-11.18s-6.66-11.61-8.62-18c-1.74-5.67-3-11.73-1.62-17.5s6-11.12,12-11.56"/><rect class="cls-4" x="546.09" y="105.4" width="96" height="78" rx="9.29"/></svg>