<?xml version="1.0" encoding="iso-8859-1"?>
<!-- Generator: Adobe Illustrator 19.0.0, SVG Export Plug-In . SVG Version: 6.00 Build 0)  -->
<svg version="1.1" id="Layer_1" xmlns="http://www.w3.org/2000/svg" xmlns:xlink="http://www.w3.org/1999/xlink" x="0px" y="0px"
	 viewBox="0 0 505.173 505.173" style="enable-background:new 0 0 505.173 505.173;" xml:space="preserve">
<g transform="translate(1 1)">
	<path style="fill:#FF7474;" d="M285.72,47.64c0,9.387-7.68,17.067-17.067,17.067h-17.067V30.573l34.133-8.533V47.64z
		 M251.587,30.573v34.133H234.52c-9.387,0-17.067-7.68-17.067-17.067V4.973l34.133,8.533V30.573z"/>
	<path style="fill:#ECF4F7;" d="M277.187,141.507c25.6,34.133,0,85.333,0,85.333l-17.067,34.133h-17.067l-17.067-34.133
		c0,0-25.6-51.2,0-85.333h25.6H277.187z"/>
	<path style="fill:#AE938D;" d="M243.053,260.973h17.067h76.8c9.387,0,17.067,7.68,17.067,17.067s-7.68,17.067-17.067,17.067
		h-85.333h-85.333c-9.387,0-17.067-7.68-17.067-17.067s7.68-17.067,17.067-17.067H243.053z"/>
	<path style="fill:#F2EDDA;" d="M499.053,209.773v85.333c0,18.773-15.36,34.133-34.133,34.133h-17.067h-68.267
		C379.587,263.533,433.347,209.773,499.053,209.773z M123.587,329.24H55.32H38.253c-18.773,0-34.133-15.36-34.133-34.133v-85.333
		C69.827,209.773,123.587,263.533,123.587,329.24z"/>
</g>
<path style="fill:#51565F;" d="M303.787,505.173c-0.853,0-2.56,0-3.413-0.853l-25.6-25.6c-0.853-0.853-0.853-1.707-0.853-3.413
	c0-1.707,0-2.56,0.853-3.413c1.707-1.707,4.267-1.707,5.973,0l25.6,25.6c0.853,0.853,0.853,1.707,0.853,3.413s0,2.56-0.853,3.413
	C305.493,505.173,304.64,505.173,303.787,505.173z M201.387,505.173c-0.853,0-2.56,0-3.413-0.853c-1.707-1.707-1.707-4.267,0-5.973
	L248.32,448V300.373h-81.067c-11.947,0-21.333-9.387-21.333-21.333s9.387-21.333,21.333-21.333H337.92
	c11.947,0,21.333,9.387,21.333,21.333s-9.387,21.333-21.333,21.333h-81.067v149.333c0,0.853-0.853,2.56-0.853,3.413l-51.2,51.2
	C203.947,505.173,202.24,505.173,201.387,505.173z M167.253,266.24c-6.827,0-12.8,5.973-12.8,12.8s5.973,12.8,12.8,12.8H337.92
	c6.827,0,12.8-5.973,12.8-12.8s-5.973-12.8-12.8-12.8H167.253z M482.987,505.173H414.72c-2.56,0-4.267-1.707-4.267-4.267
	c0-2.56,1.707-4.267,4.267-4.267h29.867V334.507H414.72c-35.84,0-35.84,0-37.547-0.853c-0.853-0.853-0.853-1.707-0.853-3.413
	c0-68.267,55.467-123.733,123.733-123.733c2.56,0,4.267,1.707,4.267,4.267v85.333c0,21.333-17.067,38.4-38.4,38.4h-12.8V496.64
	h29.867c2.56,0,4.267,1.707,4.267,4.267C487.253,503.466,485.547,505.173,482.987,505.173z M384.853,325.973
	c6.827,0,20.48,0,29.867,0h51.2c16.213,0,29.867-13.653,29.867-29.867V215.04C436.053,217.6,387.413,265.386,384.853,325.973z
	 M90.453,505.173H22.187c-2.56,0-4.267-1.707-4.267-4.267c0-2.56,1.707-4.267,4.267-4.267h29.867V334.507h-12.8
	c-21.333,0-38.4-17.067-38.4-38.4v-85.333c0-2.56,1.707-4.267,4.267-4.267c68.267,0,123.733,55.467,123.733,123.733
	c0,0.853-0.853,2.56-0.853,3.413c-1.707,1.707-1.707,1.707-37.547,0.853H60.587V496.64h29.867c2.56,0,4.267,1.707,4.267,4.267
	C94.72,503.466,93.013,505.173,90.453,505.173z M9.387,215.04v81.067c0,16.213,13.653,29.867,29.867,29.867h51.2l0,0
	c9.387,0,23.04,0,29.867,0C117.76,265.386,69.12,217.6,9.387,215.04z M278.187,232.107c-0.853,0-1.707,0-1.707-0.853
	c-1.707-0.853-2.56-3.413-1.707-5.973c0-0.853,23.04-47.787,1.707-79.36h-46.933c-21.333,31.573,1.707,78.507,1.707,79.36
	c0.853,1.707,0,4.267-1.707,5.973c-1.707,0.853-4.267,0-5.973-1.707c-0.853-2.56-26.453-53.76,0-89.6
	c0.853-0.853,1.707-1.707,3.413-1.707h21.333v-19.627L232.107,102.4c-0.853-0.853-0.853-1.707-0.853-3.413
	c0-1.707,0-2.56,0.853-3.413c1.707-1.707,4.267-1.707,5.973,0l9.387,9.387V68.267h-12.8c-11.947,0-21.333-9.387-21.333-21.333V4.267
	c0-1.707,0.853-2.56,1.707-3.413C215.893,0,217.6,0,218.453,0l34.133,8.533C254.293,9.387,256,11.093,256,12.8v11.947l29.013-6.827
	c1.707,0,2.56,0,3.413,0.853c0.853,0.853,1.707,1.707,1.707,3.413v25.6c0,11.947-9.387,21.333-21.333,21.333H256v46.933l0,0v21.333
	h21.333c1.707,0,2.56,0.853,3.413,1.707c26.453,35.84,1.707,87.893,0,89.6C281.6,231.253,279.893,232.107,278.187,232.107z
	 M256.853,61.44h12.8c6.827,0,12.8-5.973,12.8-12.8V28.16l-25.6,6.827V61.44z M222.72,11.093V48.64c0,6.827,5.973,12.8,12.8,12.8
	h12.8V17.92L222.72,11.093z"/>
<g>
</g>
<g>
</g>
<g>
</g>
<g>
</g>
<g>
</g>
<g>
</g>
<g>
</g>
<g>
</g>
<g>
</g>
<g>
</g>
<g>
</g>
<g>
</g>
<g>
</g>
<g>
</g>
<g>
</g>
</svg>
