<svg id="Layer_1" data-name="Layer 1" xmlns="http://www.w3.org/2000/svg" viewBox="0 0 103 35.08"><defs><style>.cls-1{fill:#0170ba;}.cls-2{fill:#29a9df;}.cls-3{fill:#cfcfcf;}.cls-4{fill:#fff;}</style></defs><g id="_000000ff" data-name="#000000ff"><path d="M0,10.31c6.57-.07,13.15,0,19.72,0,0,1.73.05,3.46,0,5.19-4.55,0-9.1,0-13.65,0C6,18,5.94,20.52,6,23c4.57,0,9.15.06,13.72,0,0,1.43,0,2.85,0,4.28-6.55,0-13.11,0-19.66,0C0,21.66,0,16,0,10.31Z" transform="translate(0)"/><path d="M22.06,10.29c6.66,0,13.31,0,20,0,0,1.63,0,3.26,0,4.9q-7.28,0-14.53,0v1.93c4.83.06,9.67.07,14.5.1,0,3.35,0,6.7,0,10q-10,0-20,0c0-1.35,0-2.7,0-4.05q6.91,0,13.84,0c0-.87,0-1.74,0-2.61-4.64,0-9.27,0-13.91,0C22,17.2,22,13.74,22.06,10.29Z" transform="translate(0)"/><path d="M44.26,10.32H64.19c0,1.64.06,3.28,0,4.92-4.87,0-9.73,0-14.6,0,0,.67,0,1.34.07,2,4.84,0,9.68,0,14.51.07,0,3.33.07,6.67,0,10q-10,0-20,0c0-1.35-.05-2.71,0-4.05q6.9,0,13.82,0c0-.87,0-1.74,0-2.62-4.62,0-9.24,0-13.87,0C44.2,17.24,44.23,13.78,44.26,10.32Z" transform="translate(0)"/></g><g id="_0170baff" data-name="#0170baff"><path class="cls-1" d="M72.71,0H103c-.56,6.41-1.1,12.83-1.68,19.24q-.52,6.15-1.07,12.29c-2.16.58-4.29,1.25-6.45,1.83-2,.6-4,1.13-6,1.72h-.06C85.91,34.51,84,34,82.12,33.43c-2.22-.61-4.42-1.29-6.65-1.9-.29-3.07-.55-6.14-.81-9.21-.48-5.68-1-11.35-1.48-17C73,3.59,72.9,1.87,72.71.17V0M87.9,2.53c0,1.23,0,2.47,0,3.7-3.47,0-6.93,0-10.39,0,.05,1.19.21,2.38.37,3.57,3.23.12,6.45,0,9.68.09-2.82,1.29-5.68,2.51-8.51,3.77a4,4,0,0,0-.72.36c0,1.31.23,2.62.32,3.93,1.72,0,3.44,0,5.16,0,1.37,0,2.75,0,4.13,0-.07,2.16,0,4.32,0,6.48C87,24.24,86,24,85.11,23.87c-.73-.17-1.47-.25-2.19-.46-.1-1-.17-2.08-.26-3.12a2.35,2.35,0,0,0-.65-.06H78.89a59.22,59.22,0,0,0,.58,6c1,.28,2,.54,3.08.83,1.57.44,3.15.8,4.73,1.23a1.79,1.79,0,0,0,.57.09c.1,1.31,0,2.63,0,3.95A7.94,7.94,0,0,0,89,32l8.92-2.5c.15-1.2.22-2.4.34-3.6q.47-5.46.94-10.92c.38-4.16.71-8.33,1.1-12.49Z" transform="translate(0)"/></g><g id="_29a9dfff" data-name="#29a9dfff"><path class="cls-2" d="M87.9,2.53h12.36c-.39,4.16-.72,8.33-1.1,12.49q-.48,5.46-.94,10.92c-.12,1.2-.19,2.4-.34,3.6L89,32a7.94,7.94,0,0,1-1.07.26c0-1.32.06-2.64,0-3.95l.1,0c2.77-.71,5.52-1.49,8.28-2.22.35-4,.74-8,1-12h-7c-.34,0-.69,0-1,0,1.27-.67,2.6-1.19,3.9-1.79s2.5-1.11,3.75-1.68a3.24,3.24,0,0,0,.71-.38,6.15,6.15,0,0,0,.11-1c.07-1,.2-2,.25-3-3.33,0-6.65,0-10,0C87.92,5,87.88,3.76,87.9,2.53Z" transform="translate(0)"/><path class="cls-2" d="M87.92,17.9c1.6,0,3.21,0,4.82,0-.09,1.67-.23,3.35-.31,5-1,.33-2,.6-3,.91a11.28,11.28,0,0,0-1.58.53C87.94,22.22,87.85,20.06,87.92,17.9Z" transform="translate(0)"/></g><g id="_cfcfcfff" data-name="#cfcfcfff"><path class="cls-3" d="M77.49,6.23c3.46,0,6.92,0,10.39,0,0,3.89,0,7.78,0,11.67-1.38,0-2.76,0-4.13,0-1.72,0-3.44,0-5.16,0-.09-1.31-.3-2.62-.32-3.93a4,4,0,0,1,.72-.36c2.83-1.26,5.69-2.48,8.51-3.77-3.23-.1-6.45,0-9.68-.09C77.7,8.61,77.54,7.42,77.49,6.23Z" transform="translate(0)"/><path class="cls-3" d="M78.89,20.24H82a2.35,2.35,0,0,1,.65.06c.09,1,.16,2.08.26,3.12.72.21,1.46.29,2.19.46.92.16,1.84.37,2.76.51C88,25.7,87.81,27,88,28.33l-.1,0a1.79,1.79,0,0,1-.57-.09c-1.58-.43-3.16-.79-4.73-1.23-1-.29-2.06-.55-3.08-.83A59.22,59.22,0,0,1,78.89,20.24Z" transform="translate(0)"/></g><g id="_ffffffff" data-name="#ffffffff"><path class="cls-4" d="M87.88,6.23c3.33,0,6.65,0,10,0,0,1-.18,2-.25,3a6.15,6.15,0,0,1-.11,1,3.24,3.24,0,0,1-.71.38c-1.25.57-2.51,1.11-3.75,1.68s-2.63,1.12-3.9,1.79c.34,0,.69,0,1,0h7c-.25,4-.64,8-1,12-2.76.73-5.51,1.51-8.28,2.22-.14-1.31,0-2.63-.08-3.95a11.28,11.28,0,0,1,1.58-.53c1-.31,2-.58,3-.91.08-1.68.22-3.36.31-5-1.61,0-3.22,0-4.82,0C87.87,14,87.92,10.12,87.88,6.23Z" transform="translate(0)"/></g></svg>