<svg id="Layer_1" data-name="Layer 1" xmlns="http://www.w3.org/2000/svg" viewBox="0 0 103 35"><defs><style>.cls-1{fill:#e44d26;}.cls-2{fill:#f16529;}.cls-3{fill:#ebebeb;}.cls-4{fill:#fff;}</style></defs><path d="M0,9.18H5.47v5.5h5V9.18h5.46V25.82H10.47V20.26h-5v5.56H0ZM23.12,14.7H18.3V9.19H33.39V14.7H28.57V25.82H23.11V14.7ZM35.78,9.18h5.7L45,15l3.5-5.86h5.69V25.82H48.74V17.57L45,23.49h-.09l-3.75-5.92v8.25H35.79Zm21.13,0h5.47V20.33h7.68v5.5H56.91Z" transform="translate(0)"/><path class="cls-1" d="M72.66,0H103l-2.76,31.5L87.81,35,75.42,31.5Z" transform="translate(0)"/><path class="cls-2" d="M97.87,29.49l2.36-26.91H87.84V32.32Z" transform="translate(0)"/><path class="cls-3" d="M82.81,14.26l-.35-4h5.38V6.44H78.32l1,11.68h8.5V14.26Zm-3.31,5.8L80,26.12l7.78,2.2h0v-4h0L83.6,23.13l-.27-3.08H79.5Z" transform="translate(0)"/><path class="cls-4" d="M96.55,15.3l.1-1H87.82v3.86H92.5l-.44,5-4.24,1.16v4l7.79-2.19,0-.66Zm-8.72-5H97l.34-3.87H87.83V10.3Z" transform="translate(0)"/></svg>