<svg id="Layer_1" data-name="Layer 1" xmlns="http://www.w3.org/2000/svg" viewBox="0 0 103 35"><defs><style>.cls-1{fill:#558;}.cls-2,.cls-3{stroke:#000;stroke-width:1.5px;}.cls-3{stroke-linecap:square;}</style></defs><path class="cls-1" d="M3.31,23.36a3.62,3.62,0,0,0-.86-2.71A3.42,3.42,0,0,0,0,19.85V15.16A5.1,5.1,0,0,0,1.42,15a2.69,2.69,0,0,0,1.06-.6,2.7,2.7,0,0,0,.63-1.1,4.82,4.82,0,0,0,.2-1.61V5.44A11,11,0,0,1,3.55,3a3.43,3.43,0,0,1,.88-1.68,3.79,3.79,0,0,1,1.74-1A10.33,10.33,0,0,1,9,0V4.41A4.27,4.27,0,0,0,8,4.55,1.53,1.53,0,0,0,7.31,5a1.88,1.88,0,0,0-.44.82,4.72,4.72,0,0,0-.16,1.37V13q-.08,3.68-3,4.35v.24A3.68,3.68,0,0,1,6,19,4.66,4.66,0,0,1,6.71,22v5.86a5.09,5.09,0,0,0,.16,1.37,1.88,1.88,0,0,0,.44.82,1.45,1.45,0,0,0,.71.43,3.87,3.87,0,0,0,.94.14V35a10.75,10.75,0,0,1-2.79-.31,3.88,3.88,0,0,1-1.74-1A3.51,3.51,0,0,1,3.55,32a11.17,11.17,0,0,1-.24-2.49V23.36M99.7,29.53A11.12,11.12,0,0,1,99.45,32a3.44,3.44,0,0,1-.89,1.69,3.79,3.79,0,0,1-1.73,1A10.33,10.33,0,0,1,94,35V30.57a3.71,3.71,0,0,0,.93-.14,1.38,1.38,0,0,0,.7-.43,1.79,1.79,0,0,0,.45-.82,4.68,4.68,0,0,0,.17-1.37V22A4.62,4.62,0,0,1,97,19a3.64,3.64,0,0,1,2.26-1.41v-.24q-2.94-.68-3-4.35V7.17a4.68,4.68,0,0,0-.17-1.37A1.86,1.86,0,0,0,95.67,5a1.45,1.45,0,0,0-.7-.43A3.74,3.74,0,0,0,94,4.41V0a10.75,10.75,0,0,1,2.79.31,3.79,3.79,0,0,1,1.73,1A3.44,3.44,0,0,1,99.45,3a10.92,10.92,0,0,1,.24,2.47v6.23a5.45,5.45,0,0,0,.2,1.61,2.66,2.66,0,0,0,.63,1.09,2.56,2.56,0,0,0,1,.61,5.23,5.23,0,0,0,1.43.18v4.69a3.49,3.49,0,0,0-2.47.8,3.69,3.69,0,0,0-.83,2.71v6.17" transform="translate(0 0)"/><path class="cls-2" d="M14.48,30.75a2.57,2.57,0,0,1-.77-.1,1.83,1.83,0,0,1-.57-.22V28.34a3.73,3.73,0,0,0,.63.18,3.63,3.63,0,0,0,.73.08,1.83,1.83,0,0,0,.64-.13,1.35,1.35,0,0,0,.58-.45,2.49,2.49,0,0,0,.44-.91,5.9,5.9,0,0,0,.16-1.46V6.49h1.61v18.9a9.82,9.82,0,0,1-.25,2.38A5.16,5.16,0,0,1,17,29.44a2.82,2.82,0,0,1-1.09,1,3.38,3.38,0,0,1-1.51.33M26,23.66h-.06a9.31,9.31,0,0,1-.57,1,3.3,3.3,0,0,1-.63.7,2.26,2.26,0,0,1-.75.4,3.07,3.07,0,0,1-1,.13,2.26,2.26,0,0,1-1.1-.26,2.41,2.41,0,0,1-.87-.77,4.3,4.3,0,0,1-.57-1.33,7.69,7.69,0,0,1-.21-1.91,4.89,4.89,0,0,1,1-3.3,4.11,4.11,0,0,1,3-1.26l1.59-.1v-.91a6.69,6.69,0,0,0-.13-1.46,2.77,2.77,0,0,0-.36-.95,1.33,1.33,0,0,0-.59-.52A1.8,1.8,0,0,0,24,13a2.9,2.9,0,0,0-1.34.32,7.16,7.16,0,0,0-1.18.76l-.56-1.8a6.89,6.89,0,0,1,1.43-.89A3.85,3.85,0,0,1,24,11a3.93,3.93,0,0,1,1.52.28,2.37,2.37,0,0,1,1.06.85,4.29,4.29,0,0,1,.63,1.48,10.48,10.48,0,0,1,.2,2.19v9.85H26.27ZM23.39,24a2,2,0,0,0,1-.25,2.11,2.11,0,0,0,.77-.75,4,4,0,0,0,.51-1.27,7.36,7.36,0,0,0,.19-1.8v-1.3l-1.23.09a4.45,4.45,0,0,0-1.3.26,2.06,2.06,0,0,0-.85.59,2.29,2.29,0,0,0-.45.91,4.74,4.74,0,0,0-.14,1.19,3,3,0,0,0,.42,1.77,1.3,1.3,0,0,0,1.1.56m5.33-12.71h1.62l1.72,8,.23,1.12.25,1.39.24,1.33.14,1H33l.15-1,.23-1.33.26-1.39.23-1.12,1.71-8h1.62L34,25.65H32ZM43.6,23.66h-.07a9.31,9.31,0,0,1-.57,1,3,3,0,0,1-.62.7,2.26,2.26,0,0,1-.75.4,3.1,3.1,0,0,1-1,.13,2.25,2.25,0,0,1-1.09-.26,2.34,2.34,0,0,1-.87-.77,4.3,4.3,0,0,1-.57-1.33,7.69,7.69,0,0,1-.21-1.91,4.89,4.89,0,0,1,1-3.3,4.11,4.11,0,0,1,3-1.26l1.59-.1v-.91a7.37,7.37,0,0,0-.13-1.46,2.77,2.77,0,0,0-.36-.95,1.33,1.33,0,0,0-.59-.52,1.84,1.84,0,0,0-.8-.16,2.89,2.89,0,0,0-1.33.32,7.24,7.24,0,0,0-1.19.76l-.55-1.8A6.89,6.89,0,0,1,40,11.37a4,4,0,0,1,3.16-.09,2.32,2.32,0,0,1,1.06.85,3.94,3.94,0,0,1,.63,1.48,9.79,9.79,0,0,1,.21,2.19v9.85H43.92ZM41,24a2.07,2.07,0,0,0,1-.25,2.38,2.38,0,0,0,.77-.75,4,4,0,0,0,.51-1.27,7.45,7.45,0,0,0,.19-1.81V18.62l-1.23.09A4.22,4.22,0,0,0,41,19a2.09,2.09,0,0,0-.84.59,2.18,2.18,0,0,0-.45.9,4.8,4.8,0,0,0-.14,1.19,3,3,0,0,0,.41,1.77A1.31,1.31,0,0,0,41,24m13.69-3.46a8.07,8.07,0,0,1-.3,2.28,5.07,5.07,0,0,1-.85,1.69,3.65,3.65,0,0,1-1.34,1.06,4.47,4.47,0,0,1-1.79.35,6.8,6.8,0,0,1-1.79-.23A3.68,3.68,0,0,1,47.27,25V22.68l.66.42.8.35.85.26a4.31,4.31,0,0,0,.88.09,2.5,2.5,0,0,0,2-.78,3.44,3.44,0,0,0,.67-2.26A5.52,5.52,0,0,0,53,19.53a2.51,2.51,0,0,0-.44-1,4,4,0,0,0-.84-.86,13,13,0,0,0-1.33-.91,7.39,7.39,0,0,1-1.34-1,5.31,5.31,0,0,1-.93-1.23A5.8,5.8,0,0,1,47.61,13a9.67,9.67,0,0,1-.17-2A7.19,7.19,0,0,1,47.71,9a4.63,4.63,0,0,1,.78-1.52,3.33,3.33,0,0,1,1.19-1,3.69,3.69,0,0,1,1.54-.32,5.3,5.3,0,0,1,1.84.3,5.59,5.59,0,0,1,1.46.75l-.58,2a6.67,6.67,0,0,0-1.28-.66,3.72,3.72,0,0,0-1.46-.28,1.93,1.93,0,0,0-1.63.74,3.12,3.12,0,0,0-.58,2,5.6,5.6,0,0,0,.13,1.3,2.79,2.79,0,0,0,.43,1,3.82,3.82,0,0,0,.79.83,11.84,11.84,0,0,0,1.23.81,10.27,10.27,0,0,1,1.37,1,4.56,4.56,0,0,1,1,1.12,4.71,4.71,0,0,1,.6,1.45,8.23,8.23,0,0,1,.21,2m5.84,5.36A3.4,3.4,0,0,1,59,25.49a3.59,3.59,0,0,1-1.32-1.31,7.5,7.5,0,0,1-.88-2.29,15.51,15.51,0,0,1-.32-3.36,15.68,15.68,0,0,1,.33-3.48,7.2,7.2,0,0,1,.89-2.34A3.55,3.55,0,0,1,59,11.41,3.51,3.51,0,0,1,60.65,11a4,4,0,0,1,1.31.22,3.9,3.9,0,0,1,1.08.55l-.46,2a4.91,4.91,0,0,0-.44-.25,3.63,3.63,0,0,0-.5-.22,3.33,3.33,0,0,0-.51-.16,2.14,2.14,0,0,0-.48-.07,2.06,2.06,0,0,0-2,1.33,10,10,0,0,0-.62,4.09,9.77,9.77,0,0,0,.62,4,2,2,0,0,0,1.9,1.27,3.18,3.18,0,0,0,1.26-.24,5.45,5.45,0,0,0,1-.57v2.12a3.52,3.52,0,0,1-1,.58,3.92,3.92,0,0,1-1.32.19M69.14,11l.56,0a3.29,3.29,0,0,1,.53.1L70,13.34l-.5-.11a2.59,2.59,0,0,0-.47-.05,1.59,1.59,0,0,0-1,.34,2.73,2.73,0,0,0-.78,1,5.77,5.77,0,0,0-.5,1.49,9.53,9.53,0,0,0-.17,1.92v7.76H65V11.27h1.27l.19,2.63h.07L67,12.81a5.12,5.12,0,0,1,.55-.91,2.75,2.75,0,0,1,.69-.64,1.7,1.7,0,0,1,.89-.25" transform="translate(0 0)"/><path class="cls-3" d="M73.55,25.65H72V11.27h1.57V25.65M72.12,6.23a.77.77,0,0,1,.65-.35.74.74,0,0,1,.36.09.71.71,0,0,1,.29.26,1.36,1.36,0,0,1,.2.47,2.62,2.62,0,0,1,.08.67,2,2,0,0,1-.28,1.14.81.81,0,0,1-.65.37.89.89,0,0,1-.66-.43,2,2,0,0,1-.25-1.11,1.88,1.88,0,0,1,.26-1.11Z" transform="translate(0 0)"/><path class="cls-2" d="M80.75,25.91a2.25,2.25,0,0,1-.92-.17,2.79,2.79,0,0,1-.75-.44,3.46,3.46,0,0,1-.59-.67,8.74,8.74,0,0,1-.45-.8h-.1l0,.85,0,.7v6.71H76.47V11.27h1.28L78,13.21H78a5.26,5.26,0,0,1,.45-.85,3.13,3.13,0,0,1,.58-.7,2.44,2.44,0,0,1,.75-.47,2.34,2.34,0,0,1,.93-.18,2.48,2.48,0,0,1,1.48.47,3.69,3.69,0,0,1,1.13,1.41,9.18,9.18,0,0,1,.74,2.32,18,18,0,0,1,.25,3.22,18.28,18.28,0,0,1-.25,3.25A8.88,8.88,0,0,1,83.36,24a3.8,3.8,0,0,1-1.13,1.43,2.82,2.82,0,0,1-1.59.47M80.45,13a2,2,0,0,0-1.11.3,2.23,2.23,0,0,0-.74.92,6,6,0,0,0-.41,1.54A16.37,16.37,0,0,0,78,17.9v.54a23.55,23.55,0,0,0,.11,2.36,7.36,7.36,0,0,0,.4,1.73,2.57,2.57,0,0,0,.75,1.06,1.91,1.91,0,0,0,1.17.35c.77,0,1.34-.48,1.7-1.43a11.78,11.78,0,0,0,.56-4.1,11.29,11.29,0,0,0-.56-4.07A1.81,1.81,0,0,0,80.45,13m9.14,11,.35,0,.38-.06.32-.09.23-.1v1.81a1.74,1.74,0,0,1-.28.16l-.38.13a3.81,3.81,0,0,1-.87.13,2.29,2.29,0,0,1-1-.21,1.88,1.88,0,0,1-.8-.72A4.31,4.31,0,0,1,87,23.61a11.21,11.21,0,0,1-.19-2.21V13.06H85.51V12l1.33-1,.68-3h.9v3.31h2.39v1.79H88.42V21.4a5.26,5.26,0,0,0,.27,1.92.94.94,0,0,0,.9.64" transform="translate(0 0)"/></svg>