<svg id="Layer_1" data-name="Layer 1" xmlns="http://www.w3.org/2000/svg" viewBox="0 0 103 35"><defs><style>.cls-1{fill:#131b28;}.cls-2{fill:#0868ac;}</style></defs><path class="cls-1" d="M44,13.67h0l-.66,3.52L44,13.67Zm3.39,7.64h0Zm-.18,5.25h0l-4.36,0Zm.9-5.25h0Zm-.52,4.81.76-4.36-.76,4.36Zm16-20-1.41,10ZM60,6.07,59,13.53Z" transform="translate(0)"/><path class="cls-1" d="M63.41,5.62h-3c-.17,0-.32.19-.37.45L57.88,21c-.05.26-.2.44-.37.45H55.37c-2.11,0-1.87-2.2-1.44-5.21l0-.09.25-2.06.11-.84,1-7.17c0-.25-.08-.45-.24-.45H52c-.17,0-.34.2-.37.45l-1.4,10c-.77,5.27-.56,10.31,3.61,10.46h6.67c.17,0,.34-.2.37-.45l2.82-20c0-.25-.07-.45-.24-.45Zm12,15.88c.13,0,.25.14.25.34a.4.4,0,0,1,0,.11l-.3,2.16m-.29,2.16.29-2.16-.29,2.16Zm-.37.45-5.56,0,5.56,0Z" transform="translate(0)"/><path class="cls-1" d="M67.38,18.72c0-.23.18-.64.35-.64h-.38c-.17,2.57,0,.65,0,.65Zm2.08,8h0Zm6-5.26c.13,0,.25.14.25.34a.4.4,0,0,1,0,.11l-.34,2.51m-4.48,2.3h0Zm-.74,0h0Zm-.23,0h0Zm-.22,0h0Zm.41,0h0Z" transform="translate(0)"/><path class="cls-1" d="M70.88,26.76h0Zm3.87,0-3.86,0Zm.37-.45.24-1.81-.24,1.81Zm-5.27.49h0Zm-.45,0h0Zm.23,0h0Zm-44.18-8,.47-3.13-.54,3.58-.52,3.64.46-3.19.13-.89ZM31.06,5.56H27.74c-.17,0-.32.19-.37.44l-.63,4.18a.42.42,0,0,0,.16.44h3.42c.18,0,.33-.19.37-.45L31.3,6c0-.24-.07-.44-.24-.44Zm-.72,7-1,6.76ZM20.7,35l2.74,0L20.7,35Zm5.68-22.45-.46,3.13Z" transform="translate(0)"/><path class="cls-1" d="M30.1,12.07H26.76c-.18,0-.33.19-.38.45l-.93,6.26-.14.89-.9,6.4c0,.29-.1.59-.16.88,0,0-.62,2.8-1.67,2.77l-1,0c-.18,0-.33.18-.38.44l-.69,4.38a.4.4,0,0,0,.15.44.12.12,0,0,0,.08,0l2.74,0c2.62,0,4-2.19,4.89-8.48l2-14c0-.25-.08-.45-.24-.45ZM77.59,26.51c-.16,0-.27-.2-.24-.45L79.87,8.33" transform="translate(0)"/><path class="cls-1" d="M81.09,26.06l1-7.57Zm-3.7.23a2.72,2.72,0,0,1,0-.67L78.6,17.2l-1.25,8.87c0,.24.07.45.24.45h.31c-.17,0-.49-.1-.51-.24Z" transform="translate(0)"/><path class="cls-1" d="M80.89,26.41a1.17,1.17,0,0,1-.47.1h.31c.17,0,.33-.2.36-.45l.06-.45a1.87,1.87,0,0,1-.26.8Zm.71-4.14.45-3.34Z" transform="translate(0)"/><path class="cls-1" d="M91.52,9.51l.14.87c0,.24-.07.44-.23.44M81.15,25.6l.45-3.33Zm10.23-17,.14.89ZM82.05,18.93l.12-.9.48-3.38-.54,3.83-.06.44ZM79.91,8l-1.29,9.16L79.91,8Z" transform="translate(0)"/><path class="cls-1" d="M91.66,10.38l-.14-.87-.21-1.32a2.58,2.58,0,0,0-2.8-2.5h-8c-.16,0-.33.2-.36.45L80.05,7l-.18,1.32L77.42,25.62a2.72,2.72,0,0,0,0,.67c0,.13.34.24.51.24h2.52a1,1,0,0,0,.47-.11,1.91,1.91,0,0,0,.26-.79l1-7.12,1-7.22c0-.25.19-.43.37-.44h7.92c.17,0,.28-.2.24-.45Zm10.2-7.8H98.72a.59.59,0,0,0-.47.37L92.63,15.33c-.09.21-.2.18-.24-.07L92,12.54c0-.26-.2-.44-.37-.45H88c-.12,0-.22.12-.23.3a.32.32,0,0,0,0,.14l1.62,8.52a3,3,0,0,1,0,.89l-.7,4.13c0,.24.06.44.23.44h3.56c.17,0,.34-.2.38-.44l.71-4.13a3.49,3.49,0,0,1,.26-.81L103,2.93c.1-.2,0-.36-.12-.36h-1ZM73.21,13.26c0,.27-.19.47-.36.47H68.28c-.16,0-.24-.16-.22-.36v0l0-.12c.44-1.74,1.33-2.89,3-2.89,1.88,0,2.25,1.38,2.12,2.94ZM71.87,5.31c-5.87,0-7.26,5.37-8,10.78s-.72,10.68,5.36,10.68h1.7l3.87,0c.17,0,.32-.19.36-.45L75.71,22a.39.39,0,0,0-.17-.43l-.08,0H70c-2.17,0-2.82-.86-2.58-3.42h8.73a.4.4,0,0,0,.32-.34l0-.11c1.29-7.36.92-12.32-4.63-12.32ZM44.12,13.22l-.08.44-.66,3.52-.65,3.52c-.06.26-.21.43-.39.45H38.85c-2.64,0-3.29-3.12-2.64-7.71s1.9-7.63,4.51-7.92c3.56-.41,4.27,3.36,3.41,7.71Zm2.4,7.65a81.1,81.1,0,0,0,2-9.49C49,6.74,47.5,0,41.53,0S33,6.44,32,13.43s.31,13.23,6.21,13.18l9-.05a.49.49,0,0,0,.38-.44l.76-4.36c0-.24-.06-.44-.23-.44l-1.45,0c-.15,0-.23-.14-.21-.32a.43.43,0,0,1,0-.11Z" transform="translate(0)"/><path class="cls-1" d="M75.91,16.85c0,.17-.09.3-.2.3s-.2-.13-.2-.3.09-.3.2-.3S75.91,16.68,75.91,16.85Z" transform="translate(0)"/><path class="cls-2" d="M1.18,9C-.46,12.58-.26,17.2,1,21l.16.43,0,.1.07.18.12.3.07.17.19.47.21.43,0,.08.18.37.07.13L2.3,24l.06.11.24.41v0l.24.38.08.12.19.28.08.11.26.36,0,.07.24.31.1.11.2.24.11.12.22.23.08.09,0,0a2.28,2.28,0,0,0,.22.22l.09.09.34.31.09.08.26.22.14.11.18.14,0,0,.07.06.29.2.06,0,.34.21.08.05.32.17,0,0,.35.18.09,0a2.75,2.75,0,0,0,.36.15c7.93,2.18,10.24-7.17,10.24-7.17-1.94,3.79-5.38,4.79-8.63,3.68l-.36-.15-.09,0-.35-.18-.05,0-.31-.17-.08-.05-.33-.21-.07-.05-.28-.19-.08-.06-.22-.17-.14-.11-.27-.22-.08-.08-.34-.31-.09-.09-.24-.23L6,23.34l-.23-.25-.31-.34-.09-.11-.25-.33,0,0-.27-.36-.08-.11-.19-.29-.08-.11L4.23,21l0,0L4,20.59l-.06-.12-.17-.32L3.67,20l-.2-.4a18,18,0,0,1-1-13m3.81-.55a12.4,12.4,0,0,0-.19,8.72A12.94,12.94,0,0,0,6.6,16.1a6.93,6.93,0,0,0,.61,1.15l.27.41.07.11.27.39h0l.32.4.07.08c.11.13.22.25.34.37h0l.15.15.07.07.25.22,0,0,.22.18.08.06.15.12h0l.32.23.07,0,.26.16.11.06.24.12.1.06a2.63,2.63,0,0,0,.35.15c6.12,1.52,7.53-5.57,7.53-5.57-1.27,2.76-3.74,4.08-6.37,3L11.8,18,11.7,18l-.24-.13-.11-.06a2.26,2.26,0,0,1-.26-.16L11,17.58l-.32-.23a1,1,0,0,1-.16-.12l-.09-.07-.2-.17-.05,0-.25-.24-.07-.07-.16-.15c-.11-.12-.22-.23-.33-.37L9.31,16a12.17,12.17,0,0,1-2.5-5.37A12.05,12.05,0,0,1,7.24,4m3.31-.19A7.81,7.81,0,0,0,10.26,9a6.43,6.43,0,0,0,2.79,3.91l.15.08.06,0,.22.09c3.38,1,4.3-2.61,4.55-3.13a2.73,2.73,0,0,1-3.81,1.55,3.62,3.62,0,0,1-.4-.19,3.15,3.15,0,0,1-.48-.3,5.34,5.34,0,0,1-.83-.76,8.12,8.12,0,0,1-1.44-7.55" transform="translate(0)"/></svg>