<svg id="Layer_1" data-name="Layer 1" xmlns="http://www.w3.org/2000/svg" xmlns:xlink="http://www.w3.org/1999/xlink" viewBox="0 0 83.54 33.73"><defs><style>.cls-1{fill:none;}.cls-2{clip-path:url(#clip-path);}.cls-3{fill:#444b5e;}.cls-4{clip-path:url(#clip-path-2);}</style><clipPath id="clip-path" transform="translate(-8.98 0)"><rect class="cls-1" x="-59" y="14.87" width="154.26" height="27.13"/></clipPath><clipPath id="clip-path-2" transform="translate(-8.98 0)"><rect class="cls-1" x="22.62" width="124.38" height="21.88"/></clipPath></defs><g class="cls-2"><path class="cls-3" d="M64,27.7a7.42,7.42,0,0,0-4.8-1.48,8.39,8.39,0,0,0-4.41,1.1A3.12,3.12,0,0,0,52.91,30a3.16,3.16,0,0,0,1.82,2.66,8.58,8.58,0,0,0,4.5,1.11A8,8,0,0,0,64,32.27v1.22h1.53V26.4H64Zm-1.32,4.36a6.6,6.6,0,0,1-3.39.83A6.36,6.36,0,0,1,55.89,32a2.43,2.43,0,0,1-1.41-2,2.42,2.42,0,0,1,1.38-2,6.23,6.23,0,0,1,3.39-.86,6.46,6.46,0,0,1,3.41.84,2.22,2.22,0,0,1,0,4.12M49.83,26.4H51.4v7.09H49.83ZM9,33.49h1.57l1.59-6.91L18,33.49h.41l5.77-6.86,1.59,6.86h1.62L25,23.91h-.24L18.2,31.77l-6.64-7.86h-.24ZM39.24,27.7a7.42,7.42,0,0,0-4.8-1.48A8.39,8.39,0,0,0,30,27.32,3.12,3.12,0,0,0,28.19,30,3.17,3.17,0,0,0,30,32.62a8.58,8.58,0,0,0,4.5,1.11,8,8,0,0,0,4.73-1.46v1.22h1.53V26.4H39.24Zm-1.32,4.36a6.6,6.6,0,0,1-3.39.83A6.36,6.36,0,0,1,31.17,32a2.43,2.43,0,0,1-1.41-2,2.42,2.42,0,0,1,1.38-2,6.37,6.37,0,0,1,3.39-.86,6.46,6.46,0,0,1,3.41.84,2.37,2.37,0,0,1,1.39,2,2.4,2.4,0,0,1-1.41,2.08m40.65-6.9a9.17,9.17,0,0,0-2.82-.95,30.73,30.73,0,0,0-5.09-.3H67.27v9.58h5.21a16.29,16.29,0,0,0,4.86-.56A6.2,6.2,0,0,0,80,31.27a3.48,3.48,0,0,0,1-2.35,3.74,3.74,0,0,0-.65-2.18,5.07,5.07,0,0,0-1.82-1.58m.3,5.31a4.13,4.13,0,0,1-1.53,1.25,7.3,7.3,0,0,1-2.34.69,38.64,38.64,0,0,1-4.28.17H68.82V24.84H70a37.55,37.55,0,0,1,4.44.19,8.23,8.23,0,0,1,2.63.69A4.49,4.49,0,0,1,78.76,27a2.89,2.89,0,0,1,.09,3.43m10.23-2.21a3.91,3.91,0,0,0,1.54-.84,1.65,1.65,0,0,0,.55-1.17,1.9,1.9,0,0,0-1.34-1.73,9.62,9.62,0,0,0-3.89-.61H82.72v9.58h4.5A8.18,8.18,0,0,0,91,32.71a2.28,2.28,0,0,0,1.48-2,1.84,1.84,0,0,0-.89-1.52,6.12,6.12,0,0,0-2.55-1m-4.75-3.42h1.89c2.18,0,3.27.47,3.27,1.42a1.33,1.33,0,0,1-1,1.25,9.38,9.38,0,0,1-3.19.41h-.93Zm6,6.87a3.42,3.42,0,0,1-1.37.64,11.41,11.41,0,0,1-2.57.2h-2V28.87h.91a23.58,23.58,0,0,1,3,.13,5.62,5.62,0,0,1,1.39.4,2.28,2.28,0,0,1,.88.62,1.19,1.19,0,0,1,.3.8,1.23,1.23,0,0,1-.52.9M50.61,23.91a1.56,1.56,0,0,0-.8.2.55.55,0,0,0-.32.47.57.57,0,0,0,.32.46,1.59,1.59,0,0,0,.81.2,1.62,1.62,0,0,0,.81-.19.56.56,0,0,0,.33-.47.53.53,0,0,0-.34-.47,1.49,1.49,0,0,0-.79-.2m-2.9,2.39a7.45,7.45,0,0,0-3.28,1l-.16.11v-1H42.81v7.09h1.58v-4.2A1.43,1.43,0,0,1,45,28.18a4.63,4.63,0,0,1,3.09-1v-.9l-.32,0" transform="translate(-8.98 0)"/></g><g class="cls-4"><path class="cls-3" d="M71.5,2c-1.22,0-1.94.33-2.17.93a2.35,2.35,0,0,0,1.15.21c.92,0,1.83-.43,1.57-1.13H71.5m6.27-2h-.11c-.87,0-1,.29-2.88.56s-3.72,0-5.76.52c-6.08,1.49-7.38,6.66-12.91,8.5a85.85,85.85,0,0,1-11.88,2.67,25.94,25.94,0,0,0-7.15,2.1c-1.73.88-2.21,1.56-4,2.66s-7.51-.86-10.27.59c-.22.12-.24.32,0,.45l0,0a11.57,11.57,0,0,0,2.82,1.27c-.35.38-2.29,1.5-1.89,2.07S29,21.6,33.41,20c2.07-.73,3.72-1.79,7-2,4.17-.33,9,.21,13.81.62-.72,1.25-2.16,2.08-3.31,3.09-.36.22.72.25,1.94.11a30,30,0,0,0,5.46-1.14c2-.7,2.35-2.49,4.86-2.88,1.21,1.09,4.22,1.46,6.55.88l.38-.11c.28-.14.11-.31-.06-.43L69.75,18a3,3,0,0,1-1-3.72c.66-1.08,1.31-2.8,2-4.22s1-3.46,1.84-4.24a17,17,0,0,1,4-2.24c1.25-.66,2.39-1.3,2.35-2.81,0-.47-.41-.74-1.12-.75m.13,1.59c-.26,1-1.4,1.61-2.74,2.17a11.37,11.37,0,0,0-3.29,1.71c-.85.77-1.39,3.42-2.71,6a10.18,10.18,0,0,1-5.5,5.36c-.18.07-.42,0-.46-.11-.19-.61-.15-1.72-.48-1.36a11.71,11.71,0,0,1-1.39,1.92c-1.64,1.84-4,3.24-7.84,3.8-.18,0-.37-.05-.41-.16a.14.14,0,0,1,.06-.16c1.76-1.43,3.34-3,3.54-5.34,0-.21-.42-.3-.64-.14-.84.6-1,2-2.26,2.48-1,.06-1.93.06-2.91,0-4-.14-8.12-.85-11.88-.15-2.55.49-5.23,1.85-7.4,2.41-2.54.64-3.74,1.25-7,1.21-.32-.26,1.34-1.39,1.91-1.87.18-.15-.2-.32-.57-.42-.87-.23-1.74-.87-2.67-1.12a2.58,2.58,0,0,1,.78-.33c2.1-.72,7.69.81,9.19-.06A13.51,13.51,0,0,0,35.45,16,11.57,11.57,0,0,1,38,14.41c.4-.19.83-.37,1.26-.54a24.71,24.71,0,0,1,4.66-1.17c2.7-.59,6-1.11,8.93-1.76a30.46,30.46,0,0,0,5.32-1.59,9.52,9.52,0,0,0,1.06-.53c4.53-2.59,5.43-7.16,12.48-7.58.86-.06,1.47-.08,2.1-.09A8.11,8.11,0,0,0,75.88.84c.22-.06,1.51-.52,2-.29s.08,1,.06,1" transform="translate(-8.98 0)"/></g></svg>