<svg id="Layer_1" data-name="Layer 1" xmlns="http://www.w3.org/2000/svg" viewBox="0 0 103 35"><defs><style>.cls-1{fill:#599636;}.cls-2{fill:#6cac48;}.cls-3{fill:#c2bfbf;}.cls-4{fill:#47474a;}</style></defs><path class="cls-1" d="M8.82.09,9.88,1.85a5.53,5.53,0,0,0,.8.88A26.41,26.41,0,0,1,13.17,5.2a20.69,20.69,0,0,1,3.88,6.89,15,15,0,0,1,.82,4.67,15.43,15.43,0,0,1-5.48,12.16,14.86,14.86,0,0,1-2,1.47.82.82,0,0,1-.69-.48,3.44,3.44,0,0,1-.55-1.37A6,6,0,0,1,9,26.8v-.26C9,26.48,8.68.23,8.81.1Z" transform="translate(0 0)"/><path class="cls-2" d="M8.82,0c-.05-.08-.09,0-.13,0a1.68,1.68,0,0,1-.37,1.05,5.17,5.17,0,0,1-1,.83A19,19,0,0,0,2.7,7.17,19.36,19.36,0,0,0,0,15.71a24.94,24.94,0,0,0,.79,6,17.94,17.94,0,0,0,5.45,7.53,20.25,20.25,0,0,0,1.93,1.45c.19,0,.21-.15.26-.27a4.73,4.73,0,0,0,.19-.74c.19-.95.3-1.91.43-2.86L8.82,0Z" transform="translate(0 0)"/><path class="cls-3" d="M9.88,31.55a2.48,2.48,0,0,1,.54-1.16,1.36,1.36,0,0,1-.61-.5,4.15,4.15,0,0,1-.32-.63A10,10,0,0,1,9,26.8v-.49c-.1.07-.13.72-.13.82a15.79,15.79,0,0,1-.39,2.57,2,2,0,0,1-.34,1,.39.39,0,0,0,0,.14,10,10,0,0,1,.56,3.08v.39c0,.45,0,.36.42.51a2.32,2.32,0,0,1,.54.19c.13,0,.15-.09.15-.17l-.07-.63V32.44a4.33,4.33,0,0,1,.09-.89Z" transform="translate(0 0)"/><path class="cls-4" d="M22.14,19.05v2.46a2.81,2.81,0,0,0,0,.29.61.61,0,0,0,.42.55q.33.09.66.15c.13,0,.17.08.19.23,0,.55,0,.62-.5.58a26.11,26.11,0,0,0-3.31,0H19.5c-.34,0-.37,0-.37-.4,0-.07,0-.15,0-.21a.16.16,0,0,1,.17-.18c.23,0,.44-.1.66-.14a.65.65,0,0,0,.5-.63,10.76,10.76,0,0,0,0-1.14l0-4.33a.69.69,0,0,0-.32-.61,4.11,4.11,0,0,0-.82-.39,1,1,0,0,1-.24-.09.25.25,0,0,1,0-.46.63.63,0,0,1,.24-.09,12.14,12.14,0,0,0,2.55-.73c.17-.07.21-.05.23.14a2.41,2.41,0,0,1,0,.38,4.22,4.22,0,0,0,0,.61.24.24,0,0,0,.08.21c.07.05.15,0,.21-.05a7.89,7.89,0,0,1,.93-.71,4.2,4.2,0,0,1,1.52-.63,2,2,0,0,1,1.74.59,3,3,0,0,1,.54.71c.15.23.16.24.35.08a7.77,7.77,0,0,1,1.73-1.15,2.36,2.36,0,0,1,2-.1,2.54,2.54,0,0,1,1.41,1.54,4.84,4.84,0,0,1,.33,1.81v4.33a.62.62,0,0,0,.35.61,4.61,4.61,0,0,0,.86.24c.19.05.19.05.19.26,0,.54-.07.57-.53.54a24.83,24.83,0,0,0-3.45,0c-.23,0-.23,0-.24-.25V23c0-.43,0-.43.35-.53l.38-.11a.63.63,0,0,0,.44-.63l0-1.22,0-3.16a3,3,0,0,0-.15-.83,1.74,1.74,0,0,0-1.91-1.24,3.08,3.08,0,0,0-1.55.7.34.34,0,0,0-.15.34,26.69,26.69,0,0,1,0,3.1v2.24a.62.62,0,0,0,.49.7l.66.16a.18.18,0,0,1,.16.2v.11c0,.46,0,.48-.45.47-1.14-.06-2.29-.05-3.42,0-.39,0-.42,0-.4-.47,0-.26,0-.28.26-.32l.47-.1c.42-.1.57-.28.6-.78l0-1.08,0-3.25a2.67,2.67,0,0,0-.3-1.16,1.48,1.48,0,0,0-1.34-.94,2.77,2.77,0,0,0-1.68.53,1,1,0,0,0-.49,1v2.34Zm27,.1v2.28a4.15,4.15,0,0,0,0,.49.48.48,0,0,0,.34.45,2.83,2.83,0,0,0,.76.14c.15,0,.17.08.19.21v.12c0,.56-.07.63-.56.6a23.79,23.79,0,0,0-3.27,0H46.2c-.08,0-.1,0-.13-.11a1.94,1.94,0,0,1,0-.68c0-.1.08-.12.16-.15l.59-.11c.36-.1.49-.26.5-.68l0-1.36v-4a.6.6,0,0,0-.33-.6,4.65,4.65,0,0,0-.81-.39L46,15.29a.32.32,0,0,1,0-.52.48.48,0,0,1,.29-.13,10.7,10.7,0,0,0,2.66-.78c.11,0,.15,0,.19.08a.61.61,0,0,1,0,.33l0,.76c0,.09,0,.23,0,.27s.14-.08.21-.12a7,7,0,0,1,1.39-1,2.54,2.54,0,0,1,1.42-.35,2.4,2.4,0,0,1,2.09,1.56A4.63,4.63,0,0,1,54.6,17l0,1.18v3.57c0,.28.1.46.35.55a3.52,3.52,0,0,0,.77.21c.23,0,.24.08.26.33v.08c0,.55-.06.56-.55.53a24.56,24.56,0,0,0-3.21,0h-.41c-.09,0-.15,0-.16-.11a2,2,0,0,1,0-.65.18.18,0,0,1,.16-.16l.66-.12a.51.51,0,0,0,.39-.47l0-.45,0-3.38A6.47,6.47,0,0,0,52.82,17a1.76,1.76,0,0,0-1.49-1.5,2.49,2.49,0,0,0-1.81.51.94.94,0,0,0-.39.81v2.44c0-.05,0-.05,0-.05Z" transform="translate(0 0)"/><path class="cls-3" d="M91.09,14.58a6.58,6.58,0,0,0-1.22-3.15,5.48,5.48,0,0,0-2.2-1.84A7.33,7.33,0,0,0,84.83,9c-.4,0-5.87.08-6.27,0a.22.22,0,0,0-.24.12,1.81,1.81,0,0,0-.18.37c-.17.44-.17.4.24.47a5.55,5.55,0,0,1,1,.21.82.82,0,0,1,.59.68c0,.17.06,5.86.06,8.51L80,21.25a1.84,1.84,0,0,1-.07.42.66.66,0,0,1-.33.44,1.6,1.6,0,0,1-.6.18c-.39.05-.45.06-.57.55l-.05.17c0,.22,0,.25.18.25l4.28,0,1.68,0,1.16-.16a6.87,6.87,0,0,0,3.49-1.87,6.56,6.56,0,0,0,1.38-2,7.87,7.87,0,0,0,.61-2.89,5.91,5.91,0,0,0,0-1.73ZM89,16.87a7,7,0,0,1-.71,2.94,4.07,4.07,0,0,1-2.65,2.3,4.14,4.14,0,0,1-1.57.09A3.86,3.86,0,0,1,83,22a1.34,1.34,0,0,1-.89-1.42V10.8c0-.58.23-.71.6-.73a9.54,9.54,0,0,1,1.69,0,5.87,5.87,0,0,1,1.73.48,3.84,3.84,0,0,1,1.13.79,5.76,5.76,0,0,1,1.58,2.78,9.09,9.09,0,0,1,.23,2.7Zm14,1.59a2.62,2.62,0,0,0,0-.28,3.15,3.15,0,0,0-1.19-2.08,4.27,4.27,0,0,0-1.38-.73l-.24-.08a.12.12,0,0,1,.1-.11,3.7,3.7,0,0,0,.8-.58A3.19,3.19,0,0,0,102,13a3.6,3.6,0,0,0,.06-1,2.92,2.92,0,0,0-1-2.1,3.52,3.52,0,0,0-2.24-.79c-1.54,0-3.1,0-4.65,0a7.69,7.69,0,0,1-1.35,0c-.08,0-.21,0-.27.07a2.55,2.55,0,0,0-.27.66c0,.11,0,.18.13.19l1,.17a.73.73,0,0,1,.68.69,5.49,5.49,0,0,1,0,.81l0,3,0,6a6.32,6.32,0,0,1-.1,1.05.56.56,0,0,1-.37.48,2.63,2.63,0,0,1-.86.2.34.34,0,0,0-.37.27,2.06,2.06,0,0,0-.13.45c0,.2,0,.26.18.24s4.86.11,5.75,0A8.08,8.08,0,0,0,99.68,23a5.31,5.31,0,0,0,2.39-1.58,3.75,3.75,0,0,0,.89-2.33,3.39,3.39,0,0,0,0-.64Zm-7-6.62,0-1.3a.35.35,0,0,1,.3-.4,3.63,3.63,0,0,1,1,0,4.49,4.49,0,0,1,1,.19,2.25,2.25,0,0,1,1.41,1.29,2.57,2.57,0,0,1,.2,1,3.69,3.69,0,0,1-.17,1.32A1.64,1.64,0,0,1,98.69,15a17.18,17.18,0,0,1-2.4.07c-.21,0-.23,0-.23-.28V13.27a13.45,13.45,0,0,1,0-1.42Zm4.66,8.69A2.37,2.37,0,0,1,99.39,22a2.17,2.17,0,0,1-1,.21,7.45,7.45,0,0,1-1.33-.1,1.37,1.37,0,0,1-.92-1.26c-.07-.82,0-1.66,0-2.28V16.47c0-.26,0-.34.27-.34l1.35,0,.92.12a3,3,0,0,1,1.69,1,2.77,2.77,0,0,1,.61,1.6,3.85,3.85,0,0,1-.17,1.65Z" transform="translate(0 0)"/><path class="cls-4" d="M64.3,15.66l.38.07a.93.93,0,0,0,1-.78,1.79,1.79,0,0,0,0-.92c-.08,0-.13.08-.17.11a1.24,1.24,0,0,1-.72.34,2.88,2.88,0,0,1-1.53-.18l-.7-.27a3.78,3.78,0,0,0-1.52-.23,4.86,4.86,0,0,0-2.06.73,3.09,3.09,0,0,0-1.41,1.91A4.15,4.15,0,0,0,57.5,18a2.81,2.81,0,0,0,1.66,2.44l.15.07c.13.08.15.16,0,.27L59,21l-.86.6a.38.38,0,0,0-.17.51,1.86,1.86,0,0,0,.46.78,2.42,2.42,0,0,0,.66.45c.16.08.16.12,0,.26l-.82.66a5.23,5.23,0,0,0-.78.78,1.73,1.73,0,0,0-.34,1.45A3,3,0,0,0,57.89,28a3,3,0,0,0,1.32.8,4.64,4.64,0,0,0,2.45.1,5.1,5.1,0,0,0,3-1.82,3.77,3.77,0,0,0,.92-2.37A2.26,2.26,0,0,0,64,22.33l-.77-.16-2.37-.24a1.35,1.35,0,0,1-.73-.21.59.59,0,0,1-.17-.8.68.68,0,0,1,.49-.31l.46-.05a4,4,0,0,0,2.42-1.24,3.07,3.07,0,0,0,.73-1.38,4.89,4.89,0,0,0,0-2.12c0-.18,0-.2.17-.17Zm-3.51,8.05a1.13,1.13,0,0,0,.26,0,7.31,7.31,0,0,1,1.8.26,2.78,2.78,0,0,1,.56.24,1.61,1.61,0,0,1,.72,1.63,2.05,2.05,0,0,1-1,1.59,3,3,0,0,1-1.22.39h-.46A3.1,3.1,0,0,1,60,27.54a2.2,2.2,0,0,1-.85-.65,1.82,1.82,0,0,1,0-2.44A2,2,0,0,1,60.79,23.71Zm1.64-5a1.39,1.39,0,0,1-1.62,1,1.73,1.73,0,0,1-1.33-1.08A3.8,3.8,0,0,1,59.22,16a1.47,1.47,0,0,1,1.14-1.28,1.7,1.7,0,0,1,2,1.07,3.88,3.88,0,0,1,.3,1.72,4.08,4.08,0,0,1-.21,1.14Zm-18.06-1.1a4.67,4.67,0,0,0-.94-2.33,3.57,3.57,0,0,0-2.92-1.42,4.66,4.66,0,0,0-2.76.89,4.19,4.19,0,0,0-1.67,2.47A6.33,6.33,0,0,0,36,20a3.89,3.89,0,0,0,4.34,3.49,4.26,4.26,0,0,0,1.76-.58A4.18,4.18,0,0,0,44,20.88a5.79,5.79,0,0,0,.45-2.49l-.07-.82Zm-2,3.59a1.8,1.8,0,0,1-1.48,1.35,2.18,2.18,0,0,1-1.74-.5,3.34,3.34,0,0,1-.91-1.21,7,7,0,0,1-.38-4.23,2.42,2.42,0,0,1,.6-1.18,1.8,1.8,0,0,1,1.83-.52,2.62,2.62,0,0,1,1.58,1.18,4.91,4.91,0,0,1,.71,2.07,8.14,8.14,0,0,1,.07,1,6.19,6.19,0,0,1-.27,2ZM75.68,17.7a4.76,4.76,0,0,0-1-2.51,3.66,3.66,0,0,0-2.9-1.37,4.64,4.64,0,0,0-2.66.82,4.09,4.09,0,0,0-1.79,2.67,6.34,6.34,0,0,0,.34,3.85A3.61,3.61,0,0,0,70,23.34a4.41,4.41,0,0,0,5.38-2.83,6.56,6.56,0,0,0,.33-2.15,3.29,3.29,0,0,0,0-.66ZM73.7,21a1.87,1.87,0,0,1-1.53,1.56,2.15,2.15,0,0,1-1.69-.45,3.18,3.18,0,0,1-1-1.32A5.57,5.57,0,0,1,69,19a6.87,6.87,0,0,1,.07-2.26,3.19,3.19,0,0,1,.13-.44,1.9,1.9,0,0,1,2.34-1.39,2.65,2.65,0,0,1,1.63,1.28,5.21,5.21,0,0,1,.66,2.13,4.62,4.62,0,0,1,0,.9A6.12,6.12,0,0,1,73.69,21Z" transform="translate(0 0)"/></svg>