<svg id="Layer_1" data-name="Layer 1" xmlns="http://www.w3.org/2000/svg" viewBox="0 0 103 35"><defs><style>.cls-1{fill:#00678c;}.cls-1,.cls-2{fill-rule:evenodd;}.cls-2{fill:#ce8b2c;}</style></defs><path class="cls-1" d="M13.73,22a2.78,2.78,0,0,0-2,.55c-.16.11-.4.11-.42.48.08.15.09.4.17.61A5,5,0,0,0,12,24.8l.65.88c.39.47.84.73,1.23,1.19a7.5,7.5,0,0,1,.61.9c.11.15.18.41.32.5v-.06c-.07-.17-.09-.43-.17-.61l-.3-.55a8.65,8.65,0,0,0-1.05-1.94c-.33-.43-1-1-1.17-1.71l0,0a2.88,2.88,0,0,0,.7-.31c.35-.18.66-.14,1-.31l.48-.27v-.17c-.18-.35-.31-.81-.5-1.13a20.39,20.39,0,0,0-1.68-2.37,10.35,10.35,0,0,0-1.05-.95c-.12-.12-.32-.18-.39-.37A10.28,10.28,0,0,1,10.3,16l-.83-3.34c-.18-.75-.29-1.5-.52-2.19A18,18,0,0,0,5,3.28,3.57,3.57,0,0,0,3.73,2.5L3,2.42a5.35,5.35,0,0,1-.47-.67C1.92,1.06.43-.44.06,1.54A5.56,5.56,0,0,0,.7,4.66,11,11,0,0,1,1.22,6.1c.07.32.09.67.16,1l.53,2.57c.11.42.24.81.38,1.19.08.21.23.31.26.66A9.24,9.24,0,0,0,2.32,13a15.3,15.3,0,0,0,.29,6.45c.16.49.61,1.54,1.06,1.13s.36-1.44.49-2.39a2.74,2.74,0,0,1,.07-.55v0l.42,1.59A10.14,10.14,0,0,0,6,21.81c.24.35.44,1,.74,1.15v-.05h0a1.37,1.37,0,0,0-.23-.38,9.49,9.49,0,0,1-.53-1.16,34,34,0,0,1-1.14-3.49c-.17-.6-.31-1.25-.44-1.84-.06-.24-.06-.58-.16-.7a8.33,8.33,0,0,0-.49,1.31,19.86,19.86,0,0,0-.29,2.9c-.36-.11-.47-.75-.59-1.29a15.14,15.14,0,0,1-.09-5.13A7.67,7.67,0,0,0,3,11.08a3.46,3.46,0,0,0-.38-.87A11.7,11.7,0,0,1,2.22,9C2,7.9,1.86,6.7,1.6,5.63a13.38,13.38,0,0,0-.51-1.47,13.8,13.8,0,0,1-.56-1.5,1.67,1.67,0,0,1,0-.8A.3.3,0,0,1,.63,1.6c.13-.21.51.06.64.17a5,5,0,0,1,1,1c.14.2.3.55.48.66H3c.32.14.69,0,1,.21A5.85,5.85,0,0,1,5.41,4.92a17.51,17.51,0,0,1,3.17,6.57c.12.44.17.84.29,1.31l.68,2.82a20.21,20.21,0,0,0,.72,2.57c.15.4.76.61,1,.83a5.71,5.71,0,0,1,.7.54l1,1.31a3.79,3.79,0,0,1,.7,1.09Z"/><path class="cls-1" d="M3.38,5.28A.86.86,0,0,0,3,5.37v0H3a5.52,5.52,0,0,0,.32.78l.23.92,0,0a1.66,1.66,0,0,0,.21-1c-.06-.14-.07-.26-.12-.4s-.2-.29-.28-.44Z"/><path class="cls-2" d="M57.21,27h8.73a4.16,4.16,0,0,0,2.79-1.1,5.83,5.83,0,0,0,1.94-4.7V17a5.15,5.15,0,0,0-2.15-4.22,4.49,4.49,0,0,0-2.58-.83H62.28c-1.23,0-1.81-.69-2-2.24a3,3,0,0,1,0-.53V6.56a2.91,2.91,0,0,1,0-.49c.16-1.18.49-1.49,1.56-1.72H70.8V.52H62.3A4.5,4.5,0,0,0,59.84,1c-1.79,1-2.57,2.72-2.57,5.67V10a4.87,4.87,0,0,0,5,5.35h3.13a.8.8,0,0,1,.32,0,1.86,1.86,0,0,1,1.65,1.16,2.09,2.09,0,0,1,.23,1.06V21a2.63,2.63,0,0,1-.43,1.36,1.71,1.71,0,0,1-1.3.81c-.12,0-.18,0-.3,0H57.21Zm32.35-6.64c0,3.92,1.56,6.11,4.67,6.55l.88.09H103V23.18H95c-1.82,0-2.43-.83-2.43-2.86V.53h-3V20.36Zm-17,.17V6.9c0-3.45,1.29-5.58,3.83-6.22l.81-.09H83a4.81,4.81,0,0,1,.85.09c2.53.66,3.81,2.77,3.81,6.22V20.53c0,2.81-.54,4.31-1.79,5.3l3,5.1H85.33L82.91,26.8l-2.43.27H77.23a4.3,4.3,0,0,1-1.83-.44c-1.92-1-2.88-2.95-2.88-6.11Zm3.27-.3a5.28,5.28,0,0,0,.08.58c.16,1.58.94,2.45,2.15,2.45h2.74l-2.51-4.31h3.51L84,22.72a3.11,3.11,0,0,0,.77-1.84,5.52,5.52,0,0,0,0-.58v-13a4.88,4.88,0,0,0,0-.53c-.17-1.5-1-2.33-2.13-2.33H78.11c-1.34,0-2.23,1.1-2.23,2.86Z"/><path class="cls-1" d="M16.92,27h3V4.37l4.71,19.74c.54,2.37,1.31,3.25,2.79,3.25s2.2-.88,2.76-3.25L34.89,4.37V27h3V4.37c0-2.19-.46-3.25-1.43-3.83C34.2-.77,32.66.37,32,3.31L27.34,22.83,22.89,3.31C22.22.37,20.66-.77,18.34.54c-.95.58-1.42,1.61-1.42,3.83ZM40.44,8.59h3V21a2,2,0,0,0,1.83,2.33h6.52V8.5h3V28.84c0,5-3.27,6.11-4.8,6.16H40.51V31.17H50.1c1.94-.39,1.71-2.23,1.71-2.86v-1.5H45.38c-3,0-4.92-2.53-4.94-5.41Z"/></svg>