<svg id="Layer_1" data-name="Layer 1" xmlns="http://www.w3.org/2000/svg" viewBox="0 0 103 35"><defs><style>.cls-1{fill:#83cd29;}.cls-2{fill:#404137;}</style></defs><path class="cls-1" d="M94.75,12.42a1.21,1.21,0,0,0-.71.21l-6.83,4.74a1.84,1.84,0,0,0-.71,1.5v9.48a1.84,1.84,0,0,0,.71,1.5L89,31.09a2.55,2.55,0,0,0,1.58.5c1.28,0,2-.94,2-2.56V19.68a.22.22,0,0,0-.21-.23h-.85a.22.22,0,0,0-.2.23V29a1,1,0,0,1-1.64.84l-1.86-1.31a.26.26,0,0,1-.11-.21V18.88a.32.32,0,0,1,.11-.23l6.82-4.73a.18.18,0,0,1,.2,0l6.82,4.73a.3.3,0,0,1,.11.23v9.47a.31.31,0,0,1-.1.23l-6.83,4.73a.18.18,0,0,1-.2,0l-1.76-1.26a.15.15,0,0,0-.17,0,4.22,4.22,0,0,1-1,.56c-.11,0-.28.12.06.35L94,34.58a1.25,1.25,0,0,0,.71.23,1.18,1.18,0,0,0,.71-.23l6.83-4.73a1.83,1.83,0,0,0,.71-1.5V18.88a1.83,1.83,0,0,0-.71-1.5l-6.83-4.75a1.28,1.28,0,0,0-.71-.21Zm1.82,6.77c-1.94,0-3.1,1-3.1,2.65,0,1.8,1.15,2.29,3,2.51,2.23.27,2.4.66,2.4,1.19,0,.92-.6,1.31-2,1.31-1.8,0-2.2-.54-2.33-1.63,0-.11-.09-.21-.19-.21h-.89a.23.23,0,0,0-.2.25c0,1.38.62,3,3.61,3,2.16,0,3.41-1,3.41-2.81s-1-2.25-3.11-2.58-2.32-.51-2.32-1.1.17-1.16,1.74-1.16c1.4,0,1.92.37,2.13,1.5a.22.22,0,0,0,.19.2h.89a.18.18,0,0,0,.14-.09.22.22,0,0,0,.06-.17c-.13-2-1.22-2.88-3.4-2.88Z" transform="translate(0)"/><path class="cls-2" d="M54.6,0a.36.36,0,0,0-.22.07.56.56,0,0,0-.21.45V13.87a.35.35,0,0,1-.15.31.24.24,0,0,1-.3,0L51.9,12.93a.74.74,0,0,0-.87,0L43.8,18a1.14,1.14,0,0,0-.44.93V28.93a1.09,1.09,0,0,0,.44.9l7.23,5a.74.74,0,0,0,.87,0l7.24-5a1.08,1.08,0,0,0,.43-.9V3.87A1.09,1.09,0,0,0,59.12,3L54.82.05a.42.42,0,0,0-.22,0ZM8.06,12.54a.7.7,0,0,0-.39.13l-7.24,5A1.13,1.13,0,0,0,0,18.6V32.09a.56.56,0,0,0,.22.45.36.36,0,0,0,.44,0l4.29-3a1.11,1.11,0,0,0,.45-.9v-6.3a1.1,1.1,0,0,1,.43-.91l1.83-1.27a.7.7,0,0,1,.44-.14.69.69,0,0,1,.43.14l1.83,1.27a1.1,1.1,0,0,1,.43.91v6.29a1.11,1.11,0,0,0,.45.91l4.29,3a.39.39,0,0,0,.44,0,.56.56,0,0,0,.21-.46l0-13.48a1.1,1.1,0,0,0-.44-.91l-7.23-5a.7.7,0,0,0-.39-.13Zm65,.13a.69.69,0,0,0-.43.14l-7.24,5a1.1,1.1,0,0,0-.43.91V28.79a1.06,1.06,0,0,0,.45.9l7.17,4.93a.75.75,0,0,0,.86,0l4.35-2.91a.53.53,0,0,0,.23-.45.56.56,0,0,0-.22-.46l-7.28-5a.61.61,0,0,1-.23-.47V22.17a.59.59,0,0,1,.23-.45l2.27-1.57a.38.38,0,0,1,.43,0l2.26,1.57a.54.54,0,0,1,.22.45v2.48a.56.56,0,0,0,.22.46.38.38,0,0,0,.43,0l4.34-3a1.1,1.1,0,0,0,.43-.91V18.74a1.1,1.1,0,0,0-.43-.91l-7.19-5a.7.7,0,0,0-.44-.14Zm-21.63,7.5a.27.27,0,0,1,.12,0L54,21.93a.3.3,0,0,1,.11.23v3.45a.3.3,0,0,1-.11.23l-2.48,1.73a.22.22,0,0,1-.22,0l-2.48-1.73a.28.28,0,0,1-.12-.23V22.16a.28.28,0,0,1,.12-.23l2.48-1.73a.17.17,0,0,1,.1,0Z" transform="translate(0)"/><path class="cls-1" d="M29.79,12.61a.76.76,0,0,0-.43.14l-7.24,5a1.14,1.14,0,0,0-.43.93v10a1.08,1.08,0,0,0,.43.9l7.24,5a.77.77,0,0,0,.87,0l7.23-5a1.09,1.09,0,0,0,.44-.91v-10a1.14,1.14,0,0,0-.44-.93l-7.23-5a.77.77,0,0,0-.44-.14Zm43.27,9a.15.15,0,0,0-.09,0l-1.39,1a.21.21,0,0,0-.09.17v1.92a.21.21,0,0,0,.09.17l1.39,1a.12.12,0,0,0,.16,0l1.39-1a.21.21,0,0,0,.09-.17V22.75a.21.21,0,0,0-.09-.17l-1.39-1a.1.1,0,0,0-.07,0Z" transform="translate(0)"/></svg>