<svg id="Layer_1" data-name="Layer 1" xmlns="http://www.w3.org/2000/svg" viewBox="0 0 102.83 34.66"><defs><style>.cls-1,.cls-3{fill:#00d8ff;}.cls-2{fill:none;stroke:#00d8ff;stroke-miterlimit:10;stroke-width:1.66px;}.cls-3{fill-rule:evenodd;}</style></defs><ellipse class="cls-1" cx="16.33" cy="17.3" rx="2.89" ry="3.48"/><path class="cls-2" d="M16.5,10.39a27.38,27.38,0,0,1,10.21,1.8C30,13.55,32,15.6,32,17.47S29.86,21.59,26.35,23a27.51,27.51,0,0,1-9.85,1.61A27.54,27.54,0,0,1,6.45,23C3.05,21.59,1,19.37,1,17.47s1.92-3.89,5.15-5.25A27.81,27.81,0,0,1,16.5,10.39Z" transform="translate(-0.17 -0.17)"/><path class="cls-2" d="M11.38,14a38.63,38.63,0,0,1,6.4-9.74c2.61-2.74,5.1-3.81,6.44-2.88s1.9,4.29,1.16,8.65a44.19,44.19,0,0,1-3.76,11.07,39,39,0,0,1-6.19,9.66c-2.71,2.85-5.33,3.88-6.7,2.93s-1.84-3.95-1.2-8A44.41,44.41,0,0,1,11.38,14Z" transform="translate(-0.17 -0.17)"/><path class="cls-2" d="M11.39,21.06A44.06,44.06,0,0,1,7.56,9.53C6.9,5.44,7.37,2.31,8.71,1.38s4,.15,6.81,3.12a38.5,38.5,0,0,1,6.09,9.44,43.58,43.58,0,0,1,3.87,11.28c.7,4.24.13,7.49-1.24,8.44s-3.76,0-6.35-2.74a38.87,38.87,0,0,1-6.5-9.86Z" transform="translate(-0.17 -0.17)"/><path class="cls-3" d="M48.88,26.7l-5.17-6.81c2.61-.2,5-1.85,5-4.86s-2.49-5-6-5H35V26.69h2.38V20.06h3.81l4.88,6.63ZM42.4,18.24h-5V11.86h5c2.26,0,3.81,1.3,3.81,3.18s-1.55,3.2-3.81,3.2ZM57.74,27a8.16,8.16,0,0,0,5.5-1.85l-1-1.23a6.52,6.52,0,0,1-4.27,1.53c-3,0-4.82-1.9-5-4.18H64.16v-.48a6.25,6.25,0,0,0-6.66-6.48c-4,0-6.82,2.83-6.82,6.33,0,3.78,3,6.35,7,6.35ZM62,19.89H53a4.32,4.32,0,0,1,4.53-4A4.21,4.21,0,0,1,62,19.89Zm16.4,6.81V18.39c0-2.93-2.44-4.08-5.36-4.08a7.81,7.81,0,0,0-5.54,2l1,1.31a5.88,5.88,0,0,1,4.24-1.68c2,0,3.5.92,3.5,2.55v2.18A6.22,6.22,0,0,0,71.7,19c-2.35,0-4.85,1.27-4.85,4s2.5,4,4.85,4a6.45,6.45,0,0,0,4.59-1.68V26.7Zm-6-1.05c-2,0-3.42-1.1-3.42-2.63s1.41-2.65,3.42-2.65a4.93,4.93,0,0,1,3.81,1.5v2.28a4.93,4.93,0,0,1-3.81,1.5ZM88.83,27a6.26,6.26,0,0,0,5.08-2.1l-1.43-1.15A4.41,4.41,0,0,1,89,25.32a4.49,4.49,0,0,1-4.78-4.68A4.48,4.48,0,0,1,89,16a4.29,4.29,0,0,1,3.52,1.58l1.43-1.15a6.26,6.26,0,0,0-5.08-2.1c-4.12,0-6.9,2.75-6.9,6.32S84.71,27,88.83,27Zm11.59,0a3.84,3.84,0,0,0,2.58-.78l-.63-1.4a2.2,2.2,0,0,1-1.46.5,1.36,1.36,0,0,1-1.41-1.55v-7.5h2.81V14.61H99.5v-3.3H97.35v3.3H95.06v1.66h2.29v7.9c0,1.8,1,2.83,3.07,2.83Z" transform="translate(-0.17 -0.17)"/></svg>